HIERARCHY
ROOT root
{
	OFFSET	0	13.1	24.9
	CHANNELS 6  Xposition Yposition Zposition Xrotation Yrotation Zrotation
	JOINT spine_1
	{
		OFFSET	0	9.99999	0
		CHANNELS 3  Xrotation Yrotation Zrotation
		JOINT spine_2
		{
			OFFSET	0	112	-10
			CHANNELS 3  Xrotation Yrotation Zrotation
			JOINT spine_3
			{
				OFFSET	0	206.5	19.3
				CHANNELS 3  Xrotation Yrotation Zrotation
				JOINT spine_4
				{
					OFFSET	0	110.4	14.6
					CHANNELS 3  Xrotation Yrotation Zrotation
					JOINT neck_1
					{
						OFFSET	0	71.8	-50.3
						CHANNELS 3  Xrotation Yrotation Zrotation
						JOINT neck_2
						{
							OFFSET	0	86.2	-25.8
							CHANNELS 3  Xrotation Yrotation Zrotation
							JOINT head_ee
							{
								OFFSET	0	179.8	-8.7
								CHANNELS 3  Xrotation Yrotation Zrotation
								End Site
								{
									OFFSET	1	0	0
								}
							}
						}
					}
					JOINT left_clavicle
					{
						OFFSET	-43.2	22.4	-70.8
						CHANNELS 3  Xrotation Yrotation Zrotation
						JOINT left_shoulder
						{
							OFFSET	-93.9	-5.79999	48.7
							CHANNELS 3  Xrotation Yrotation Zrotation
							JOINT left_elbow
							{
								OFFSET	-291.4	-30.8	15.2
								CHANNELS 3  Xrotation Yrotation Zrotation
								JOINT left_lowarm_twist
								{
									OFFSET	-110.7	-3.89999	13.6
									CHANNELS 3  Xrotation Yrotation Zrotation
									JOINT left_hand
									{
										OFFSET	-110.7	-3.89999	13.6
										CHANNELS 3  Xrotation Yrotation Zrotation
										JOINT left_ee
										{
											OFFSET	-80.8	-5.10001	12.1
											CHANNELS 3  Xrotation Yrotation Zrotation
											End Site
											{
												OFFSET	1	0	0
											}
										}
									}
								}
							}
						}
					}
					JOINT right_clavicle
					{
						OFFSET	43.2	22.4	-70.8
						CHANNELS 3  Xrotation Yrotation Zrotation
						JOINT right_shoulder
						{
							OFFSET	93.9	-5.79999	48.7
							CHANNELS 3  Xrotation Yrotation Zrotation
							JOINT right_elbow
							{
								OFFSET	291.4	-30.8	15.2
								CHANNELS 3  Xrotation Yrotation Zrotation
								JOINT right_lowarm_twist
								{
									OFFSET	110.7	-3.89999	13.6
									CHANNELS 3  Xrotation Yrotation Zrotation
									JOINT right_hand
									{
										OFFSET	110.7	-3.89999	13.6
										CHANNELS 3  Xrotation Yrotation Zrotation
										JOINT right_ee
										{
											OFFSET	80.8	-5.10001	12.1
											CHANNELS 3  Xrotation Yrotation Zrotation
											End Site
											{
												OFFSET	1	0	0
											}
										}
									}
								}
							}
						}
					}
				}
			}
		}
	}
	JOINT left_hip
	{
		OFFSET	-82.8	-127.5	0.300001
		CHANNELS 3  Xrotation Yrotation Zrotation
		JOINT left_knee
		{
			OFFSET	-28.2	-396.7	2.2
			CHANNELS 3  Xrotation Yrotation Zrotation
			JOINT left_ankle
			{
				OFFSET	-11.7	-411.3	35.4
				CHANNELS 3  Xrotation Yrotation Zrotation
				JOINT left_toes
				{
					OFFSET	0	-60	-88.6
					CHANNELS 3  Xrotation Yrotation Zrotation
					JOINT left_foot_ee
					{
						OFFSET	-22.5	-16.5	-42.2
						CHANNELS 3  Xrotation Yrotation Zrotation
						End Site
						{
							OFFSET	1	0	0
						}
					}
				}
			}
		}
	}
	JOINT right_hip
	{
		OFFSET	82.8	-127.5	0.300001
		CHANNELS 3  Xrotation Yrotation Zrotation
		JOINT right_knee
		{
			OFFSET	28.2	-396.7	2.2
			CHANNELS 3  Xrotation Yrotation Zrotation
			JOINT right_ankle
			{
				OFFSET	11.7	-411.3	35.4
				CHANNELS 3  Xrotation Yrotation Zrotation
				JOINT right_toes
				{
					OFFSET	0	-60	-88.6
					CHANNELS 3  Xrotation Yrotation Zrotation
					JOINT right_foot_ee
					{
						OFFSET	22.5	-16.5	-42.2
						CHANNELS 3  Xrotation Yrotation Zrotation
						End Site
						{
							OFFSET	1	0	0
						}
					}
				}
			}
		}
	}
}
MOTION
Frames: 16
Frame Time: 0.02
2899.98 749.74 -1000.78 -20.0531 52.8988 13.2055 4.62202 0.299081 1.33493 4.62298 0.213538 1.35125 4.62729 0.0352358 1.36756 4.62476 0.250755 1.34484 -9.93189 16.2139 5.46466 -10.1004 26.8985 9.42359 -0.0 0.0 -0.0 0.614713 5.97016 1.82322 -40.7112 -16.6559 74.039 0.830658 -22.3662 0.164223 -7.98394 -0.348753 0.958426 -1.21277 9.30703 -3.94085 -0.0 0.0 -0.0 11.9181 16.1998 -23.9637 -12.885 29.9869 -57.3379 1.11494 28.9115 -0.287434 -16.5543 0.867698 -1.92336 -2.12312 -13.0379 8.00645 0.0 0.0 0.0 27.626 -0.09344 -1.79274 -51.059 -1.31565 7.47015 24.1047 16.0886 -3.2695 -11.867 0.0 0.0 -0.0 0.0 -0.0 14.8227 13.2646 -1.84345 3.72474 0.171208 0.545761 16.7201 19.8373 2.60397 -7.81818 0.0 0.0 0.0 0.0 0.0 
2881.63 744.051 -1010.03 -20.9358 52.9766 14.4428 4.68619 0.250614 1.29079 4.6871 0.167977 1.30412 4.69022 -0.00234644 1.31489 4.68786 0.205327 1.29876 -10.1077 16.2094 4.66513 -10.3257 27.4602 8.70518 -0.0 0.0 -0.0 0.304674 6.48295 1.31897 -42.5834 -17.3392 74.6942 0.860914 -23.0966 0.175914 -8.4251 -0.371889 1.00989 -1.05505 8.55406 -3.25989 -0.0 0.0 -0.0 12.0801 16.309 -24.3298 -11.5276 30.1232 -56.2903 1.2708 32.1898 -0.36669 -17.0355 0.901066 -1.97515 -2.18718 -10.8671 9.48987 0.0 0.0 0.0 29.8079 2.19796 -2.34105 -50.3393 -1.25185 7.37951 24.4681 15.9756 -3.31188 -11.7895 0.0 0.0 -0.0 0.0 -0.0 14.1396 10.209 -2.43306 3.71954 0.170944 0.545007 16.965 16.953 2.57573 -8.23908 0.0 0.0 0.0 0.0 0.0 
2854.47 742.683 -1018.67 -19.605 51.9713 12.9668 4.74443 0.269696 1.16192 4.74516 0.195219 1.17673 4.74859 0.0423873 1.19205 4.74668 0.230105 1.1704 -10.7054 15.9668 4.04719 -10.991 27.5172 8.20139 -0.0 0.0 -0.0 0.242669 7.1871 1.28684 -43.9171 -17.8582 75.8308 0.838881 -22.5655 0.167365 -8.67077 -0.384945 1.03847 -1.11665 8.52971 -3.6691 -0.0 0.0 -0.0 12.2372 16.149 -24.6973 -10.1285 30.3841 -55.4496 1.39132 34.5734 -0.433013 -17.0277 0.900524 -1.97431 -2.4048 -10.8819 10.8932 0.0 0.0 0.0 31.1602 0.326777 -1.98951 -49.6748 -1.19397 7.29511 22.3755 15.7102 -3.05667 -12.2504 0.0 0.0 -0.0 0.0 -0.0 13.2974 9.72887 -2.43799 1.54641 0.0667617 0.2279 17.6867 15.704 2.65038 -8.08999 0.0 0.0 0.0 0.0 0.0 
2836.57 739.632 -1021.42 -19.0053 50.3447 12.3569 4.82883 0.271322 1.12666 4.82951 0.199084 1.14164 4.83292 0.0524338 1.15768 4.83112 0.234598 1.13488 -10.3155 17.0525 2.88846 -10.662 30.2766 7.31249 -0.0 0.0 -0.0 -0.0248626 7.90042 0.893552 -43.5524 -18.0976 77.8259 0.830396 -22.3598 0.164123 -8.8442 -0.394236 1.05861 -1.0577 7.9158 -3.56093 -0.0 0.0 -0.0 12.2586 15.1437 -24.7852 -9.15852 30.4608 -55.6117 1.58356 38.1097 -0.546991 -18.4915 1.00467 -2.13013 -2.76221 -8.80828 14.3105 0.0 0.0 0.0 34.0169 0.0561681 -2.99263 -49.8603 -1.21003 7.31874 19.0464 15.3261 -2.63817 -12.86 0.0 0.0 -0.0 0.0 -0.0 12.1685 9.50676 -1.8067 -0.110457 -0.00453251 -0.0163448 20.8961 13.4372 3.03206 -7.20787 0.0 0.0 0.0 0.0 0.0 
2816.78 737.838 -1027.56 -18.0866 50.583 11.9472 4.88113 0.231502 0.800958 4.88147 0.180067 0.814065 4.88374 0.0759204 0.830277 4.88284 0.20609 0.807869 -9.95128 17.1731 3.03733 -10.2581 30.3457 7.38351 -0.0 0.0 -0.0 -0.195945 8.89309 0.71178 -43.3941 -18.2025 78.4377 0.850281 -22.8408 0.171765 -9.14841 -0.41068 1.09388 -0.985473 7.07305 -3.46523 -0.0 0.0 -0.0 12.3331 15.9992 -24.9242 -8.04276 29.397 -55.6097 1.6487 39.2359 -0.587692 -18.4109 0.998838 -2.12162 -2.49915 -7.78153 13.082 0.0 0.0 0.0 34.1094 -0.581007 -3.32692 -48.2997 -1.07733 7.11842 18.9467 15.7788 -2.62852 -13.0034 0.0 0.0 -0.0 0.0 -0.0 10.8086 10.1233 -1.32305 -1.46114 -0.0573987 -0.21688 21.5268 13.635 3.11706 -7.18317 0.0 0.0 0.0 0.0 0.0 
2798.81 743.286 -1031.98 -15.7193 48.7339 9.78586 4.43094 0.276574 0.882584 4.43134 0.219855 0.898393 4.4345 0.0975471 0.919743 4.43341 0.241573 0.892798 -12.984 17.2199 4.88744 -13.5465 29.7647 10.0161 -0.0 0.0 -0.0 -0.159033 9.51322 0.851428 -43.1097 -18.4052 79.6166 0.807566 -21.8035 0.155541 -8.83142 -0.393549 1.05713 -0.968949 7.08403 -3.35272 -0.0 0.0 -0.0 12.3136 15.6609 -24.8928 -7.49195 30.4053 -55.6474 1.76332 41.1334 -0.661663 -19.4461 1.07474 -2.23031 -2.63092 -5.87333 14.9345 0.0 0.0 0.0 35.3865 -1.16684 -4.49547 -41.5263 -0.566713 6.21061 16.2879 17.5618 -2.29605 -14.9712 0.0 0.0 -0.0 0.0 -0.0 9.1689 9.36635 -0.617693 -3.21383 -0.118918 -0.47882 21.5432 14.1747 3.13035 -7.37488 0.0 0.0 0.0 0.0 0.0 
2782.88 738.561 -1037.18 -15.7436 49.6249 10.4395 4.32629 0.305775 0.786967 4.32659 0.25508 0.804828 4.32997 0.143472 0.832002 4.32911 0.273067 0.798905 -12.9686 17.4802 3.87263 -13.6141 30.8871 9.16805 -0.0 0.0 -0.0 -0.256508 9.98423 0.740344 -42.4964 -18.5699 79.4796 0.790662 -21.3887 0.149319 -9.12677 -0.409504 1.09138 -1.10744 6.12032 -4.6861 -0.0 0.0 -0.0 12.4591 15.8509 -25.2204 -6.77975 30.388 -54.3256 1.76298 41.1279 -0.661441 -19.1607 1.05361 -2.20048 -2.63269 -3.57292 16.1064 0.0 0.0 0.0 35.4795 -2.22064 -5.04962 -36.9532 -0.284398 5.56701 15.878 19.1791 -2.25405 -15.8052 0.0 0.0 -0.0 0.0 -0.0 8.15479 10.1052 -0.378997 -4.0253 -0.144678 -0.600692 24.1929 15.1727 3.48726 -7.36371 0.0 0.0 0.0 0.0 0.0 
2768.01 735.601 -1039.12 -16.5041 49.4236 11.1013 4.61692 0.315043 0.707237 4.61715 0.269402 0.725849 4.62038 0.172211 0.754835 4.6197 0.289259 0.718167 -13.5063 17.3524 2.46147 -14.2839 31.5832 7.9908 -0.0 0.0 -0.0 -0.227564 9.65053 0.749365 -41.0047 -18.563 79.6197 0.750493 -20.3937 0.134994 -8.7576 -0.389589 1.04856 -0.914263 6.286 -3.34783 -0.0 0.0 -0.0 12.4007 15.8055 -25.0875 -5.82516 30.575 -54.3543 1.71631 40.3681 -0.630979 -18.5324 1.00764 -2.13445 -2.73854 -2.71054 17.2718 0.0 0.0 0.0 35.4739 -6.03751 -4.31568 -31.4874 -0.0157751 4.77186 13.2118 21.3809 -1.91049 -17.0633 0.0 0.0 -0.0 0.0 -0.0 7.32874 9.28566 0.798286 -4.40553 -0.156154 -0.657918 25.7723 13.2103 3.63317 -6.89635 0.0 0.0 0.0 0.0 0.0 
2747.5 736.053 -1041.93 -17.0556 51.4196 11.3848 4.69695 0.104755 0.726317 4.69724 0.0583261 0.73151 4.69776 -0.0368221 0.732907 4.69702 0.0793859 0.729525 -14.129 17.1882 1.88486 -14.9995 31.69 7.59938 -0.0 0.0 -0.0 0.0235047 8.41577 1.03964 -39.4879 -18.4749 80.368 0.720482 -19.6418 0.124721 -8.7279 -0.387999 1.04511 -0.763979 5.55134 -2.68555 -0.0 0.0 -0.0 12.0532 15.1572 -24.314 -5.77404 30.4879 -54.2328 1.68732 39.8873 -0.612295 -18.6221 1.01416 -2.1439 -2.64657 -0.397457 17.7799 0.0 0.0 0.0 34.1802 -8.21556 -3.41015 -20.0244 0.295349 3.04309 11.776 23.8194 -1.73066 -17.6279 0.0 0.0 -0.0 0.0 -0.0 6.15878 11.3706 2.01272 -6.70862 -0.217515 -1.00601 27.6774 13.0818 3.85383 -6.71312 0.0 0.0 0.0 0.0 0.0 
2730.43 732.34 -1044.78 -17.279 51.209 11.4517 4.92614 0.29577 0.685701 4.92637 0.251539 0.703131 4.92926 0.161402 0.729118 4.92862 0.274524 0.694479 -15.4908 17.2475 1.01233 -16.6032 32.4444 7.27971 -0.0 0.0 -0.0 -0.287216 8.56022 0.510826 -38.7549 -18.8846 80.7349 0.697739 -19.0672 0.117184 -8.26614 -0.363507 0.991366 -0.722998 6.31129 -2.08685 -0.0 0.0 -0.0 12.0218 15.6922 -24.2221 -5.82146 30.3367 -54.3694 1.64432 39.1614 -0.584926 -18.1191 0.977796 -2.09074 -2.75283 -0.819022 18.3179 0.0 0.0 0.0 35.3788 -10.8871 -3.28216 -15.0263 0.321715 2.27692 11.3945 24.7646 -1.6849 -17.7212 0.0 0.0 -0.0 0.0 -0.0 4.74802 10.0641 2.85278 -5.7517 -0.19372 -0.86109 29.8763 12.8784 4.09739 -6.41524 0.0 0.0 0.0 0.0 0.0 
2719.23 727.747 -1051.24 -18.8439 52.926 13.1388 5.03299 0.192891 0.718996 5.03326 0.14675 0.729812 5.03489 0.0554544 0.742351 5.03416 0.171996 0.724278 -16.5791 16.4437 1.11588 -17.7057 30.927 7.37896 -0.0 0.0 -0.0 -0.777726 7.58778 -0.482738 -36.5501 -19.6071 80.7682 0.728358 -19.8398 0.127381 -8.2813 -0.364304 0.993134 -0.689199 7.18547 -1.48786 -0.0 0.0 -0.0 11.9804 15.7279 -24.126 -6.29253 30.2642 -54.0694 1.64957 39.2509 -0.588248 -18.9705 1.03962 -2.18054 -2.69699 -0.16517 18.2487 0.0 0.0 0.0 33.8155 -12.6644 -3.91348 -6.70018 0.217316 1.00473 12.4165 25.6635 -1.83887 -17.8038 0.0 0.0 -0.0 0.0 -0.0 3.93133 8.86994 2.62391 -5.46636 -0.186156 -0.817954 30.16 14.6247 4.17411 -7.65999 0.0 0.0 0.0 0.0 0.0 
2695.57 720.927 -1054.0 -20.0916 53.2769 14.2921 5.10876 0.0856646 0.704985 5.10904 0.040632 0.709008 5.1093 -0.0463677 0.708656 5.1086 0.0661303 0.707085 -17.0748 16.2319 0.216707 -18.2793 31.0463 6.62618 -0.0 0.0 -0.0 -0.721856 7.24752 -0.428812 -35.253 -18.8174 81.4828 0.698679 -19.091 0.117491 -8.00177 -0.34968 0.96051 -0.682317 7.22384 -1.42653 -0.0 0.0 -0.0 11.8722 15.3187 -23.8943 -6.36995 29.4628 -53.9331 1.65064 39.269 -0.58892 -18.4809 1.00391 -2.12902 -2.74536 0.284283 18.8116 0.0 0.0 0.0 33.3873 -13.8948 -4.61217 1.89484 -0.0826535 -0.279 11.8092 26.8123 -1.76421 -18.1282 0.0 0.0 -0.0 0.0 -0.0 3.41759 8.06499 3.35767 -7.09179 -0.226363 -1.06415 32.6499 14.4289 4.43771 -6.43827 0.0 0.0 0.0 0.0 0.0 
2677.69 715.432 -1060.11 -20.681 53.9717 15.3088 5.15359 0.0446696 0.739121 5.1539 -0.00245184 0.740466 5.15359 -0.0924107 0.734681 5.15284 0.024775 0.740055 -15.8088 16.2254 0.586075 -16.8324 30.7532 6.55502 -0.0 0.0 -0.0 -1.18174 5.91828 -1.44243 -31.8417 -17.9763 82.0739 0.706323 -19.2845 0.120003 -7.39708 -0.318592 0.889697 -0.631236 8.66328 -0.475815 -0.0 0.0 -0.0 11.7687 15.1393 -23.665 -7.20088 29.1467 -53.8836 1.70095 40.114 -0.621051 -19.1543 1.05314 -2.19981 -2.69813 0.828024 18.7447 0.0 0.0 0.0 32.3588 -14.5575 -5.03348 7.01967 -0.352018 -1.0186 11.6162 26.5049 -1.73328 -17.5551 0.0 0.0 -0.0 0.0 -0.0 3.25047 7.57199 2.97285 -9.27107 -0.269277 -1.39579 33.4307 14.708 4.52724 -7.46392 0.0 0.0 0.0 0.0 0.0 
2656.02 716.215 -1067.09 -21.3252 54.3107 16.4034 4.92038 0.0464159 0.74351 4.92069 -0.000988296 0.744957 4.92042 -0.0945118 0.738938 4.91966 0.0233725 0.744591 -15.3977 15.6142 0.911936 -16.2722 29.3656 6.47067 -0.0 0.0 -0.0 -1.47386 6.57388 -1.87584 -29.4154 -17.0304 81.0508 0.704628 -19.2417 0.119444 -6.58911 -0.278227 0.794584 -0.553551 9.52522 0.392415 -0.0 0.0 -0.0 11.8105 14.4053 -23.7848 -7.74343 28.3086 -54.0916 1.71114 40.2827 -0.627628 -19.5619 1.08335 -2.24238 -2.73808 0.413748 18.824 0.0 0.0 0.0 31.7787 -14.9327 -5.27539 8.07005 -0.415357 -1.1671 7.69212 26.6149 -1.16234 -17.5707 0.0 0.0 -0.0 0.0 -0.0 2.79221 7.24808 2.73753 -10.7535 -0.291245 -1.62219 34.732 15.527 4.68507 -8.43147 0.0 0.0 0.0 0.0 0.0 
2638.21 714.208 -1075.29 -19.6748 54.994 15.0665 4.67208 -0.0375518 0.749294 4.67239 -0.0851539 0.745386 4.67105 -0.181242 0.728014 4.67032 -0.063995 0.7475 -13.085 16.1268 2.13049 -13.7026 29.3919 7.10859 -0.0 0.0 -0.0 -1.68741 5.18264 -2.47637 -28.1572 -16.5881 81.7469 0.71846 -19.5909 0.124042 -6.18321 -0.258457 0.74659 -0.545536 10.1672 0.716534 -0.0 0.0 -0.0 11.8646 14.2512 -23.9127 -8.71395 27.5343 -54.3034 1.7156 40.3564 -0.630518 -21.0266 1.19438 -2.39358 -2.69183 0.352071 18.4668 0.0 0.0 0.0 32.2234 -15.8385 -5.23685 6.59121 -0.326968 -0.957699 5.05348 26.33 -0.767901 -17.1391 0.0 0.0 -0.0 0.0 -0.0 3.00604 6.99611 2.73107 -15.6882 -0.322064 -2.37847 35.3993 15.4442 4.74924 -8.67659 0.0 0.0 0.0 0.0 0.0 
2611.8 711.711 -1080.68 -19.1904 54.6338 15.1411 4.38158 -0.0616155 0.710746 4.38186 -0.106716 0.705386 4.38035 -0.200903 0.684541 4.37971 -0.0902743 0.707678 -11.6615 16.2297 3.52045 -12.0761 28.5169 8.03817 -0.0 0.0 -0.0 -1.88417 5.03367 -2.86176 -26.601 -15.9236 81.4753 0.741184 -20.1613 0.131768 -5.55901 -0.22872 0.672522 -0.535851 10.7444 1.023 -0.0 0.0 -0.0 11.9002 12.482 -24.0339 -9.36607 26.7519 -55.2692 1.72402 40.4947 -0.635974 -22.0054 1.27074 -2.49304 -2.66866 0.0448202 18.1526 0.0 0.0 0.0 32.3247 -16.3358 -5.39451 5.61451 -0.271576 -0.818202 -1.2914 26.8214 0.199715 -17.5043 0.0 0.0 -0.0 0.0 -0.0 2.78234 6.88359 2.92378 -19.0771 -0.305479 -2.89809 35.6711 15.0201 4.76289 -9.07376 0.0 0.0 0.0 0.0 0.0 
